<?xml version="1.0" standalone="no"?>
<!DOCTYPE svg PUBLIC "-//W3C//DTD SVG 20010904//EN"
 "http://www.w3.org/TR/2001/REC-SVG-20010904/DTD/svg10.dtd">
<svg version="1.0" xmlns="http://www.w3.org/2000/svg"
 width="120.000000pt" height="120.000000pt" viewBox="0 0 120.000000 120.000000"
 preserveAspectRatio="xMidYMid meet">
<metadata>
Created by potrace 1.11, written by Peter Selinger 2001-2013
</metadata>
<g transform="translate(0.000000,120.000000) scale(0.100000,-0.100000)"
fill="#000000" stroke="none">
<path d="M750 1124 c0 -28 -7 -71 -15 -94 -20 -58 -19 -83 7 -133 21 -39 23
-40 26 -17 1 14 12 55 24 92 18 58 20 72 9 110 -7 24 -21 54 -31 68 l-20 25 0
-51z"/>
<path d="M605 1126 c-97 -46 -165 -103 -199 -165 -30 -56 -30 -52 -10 -207 12
-100 -31 -164 -112 -164 -31 0 -51 7 -74 26 -17 15 -33 24 -35 22 -13 -13 -27
-130 -22 -183 12 -121 62 -208 151 -260 95 -55 297 -81 432 -56 148 28 253
105 290 211 20 59 25 185 11 253 l-8 39 -25 -27 c-20 -21 -30 -26 -52 -20 -58
14 -65 32 -66 167 -1 118 -2 127 -29 166 -36 55 -48 53 -31 -5 25 -83 -9 -133
-91 -133 -45 0 -84 34 -95 84 -10 45 4 144 31 224 10 30 19 57 19 59 0 8 -20
1 -85 -31z m94 -652 c96 -48 134 -145 93 -238 -29 -64 -67 -80 -192 -80 -123
0 -163 16 -190 76 -37 82 -18 166 44 192 19 8 42 26 51 40 29 44 115 49 194
10z"/>
<path d="M284 868 c-49 -53 -56 -95 -24 -143 11 -16 20 -46 20 -65 l1 -35 34
37 c38 41 44 71 19 107 -9 12 -19 45 -23 73 l-6 50 -21 -24z"/>
<path d="M946 781 c-16 -66 -16 -72 0 -103 l18 -33 6 30 c4 17 12 41 19 54 14
26 8 76 -13 104 -12 15 -15 9 -30 -52z"/>
</g>
</svg>
